<svg width="24" height="24" viewBox="0 0 24 24" fill="none" xmlns="http://www.w3.org/2000/svg">
<path d="M15.5812 20.34L14.6402 23.25C14.5664 23.47 14.4373 23.65 14.2528 23.79C14.0683 23.93 13.8653 24 13.6439 24C13.2749 24 12.9751 23.835 12.7445 23.505C12.5138 23.175 12.4723 22.81 12.6199 22.41L16.8266 10.35C16.9188 10.13 17.0572 9.95 17.2417 9.81C17.4262 9.67 17.6292 9.6 17.8506 9.6H18.6808C18.9022 9.6 19.1052 9.67 19.2897 9.81C19.4742 9.95 19.6125 10.13 19.7048 10.35L23.9114 22.44C24.059 22.82 24.0221 23.175 23.8007 23.505C23.5793 23.835 23.2841 24 22.9151 24C22.6753 24 22.4677 23.93 22.2924 23.79C22.1172 23.65 21.9834 23.46 21.8911 23.22L20.9502 20.34H15.5812ZM8.91144 14.37L4.09594 19.56C3.89299 19.78 3.6393 19.895 3.33487 19.905C3.03044 19.915 2.76753 19.8 2.54613 19.56C2.34317 19.34 2.2417 19.06 2.2417 18.72C2.2417 18.38 2.34317 18.1 2.54613 17.88L7.36162 12.66C6.71587 11.96 6.13007 11.16 5.60424 10.26C5.07841 9.36 4.5941 8.34 4.15129 7.2H6.47601C6.84502 7.98 7.21402 8.66 7.58303 9.24C7.95203 9.82 8.39483 10.4 8.91144 10.98C9.5203 10.32 10.1522 9.395 10.8072 8.205C11.4622 7.015 11.9557 5.88 12.2878 4.8H1.10701C0.793358 4.8 0.530443 4.685 0.318266 4.455C0.106089 4.225 0 3.94 0 3.6C0 3.26 0.106089 2.975 0.318266 2.745C0.530443 2.515 0.793358 2.4 1.10701 2.4H7.74908V1.2C7.74908 0.86 7.85517 0.575 8.06734 0.345C8.27952 0.115 8.54244 0 8.85609 0C9.16974 0 9.43266 0.115 9.64483 0.345C9.85701 0.575 9.9631 0.86 9.9631 1.2V2.4H16.6052C16.9188 2.4 17.1817 2.515 17.3939 2.745C17.6061 2.975 17.7122 3.26 17.7122 3.6C17.7122 3.94 17.6061 4.225 17.3939 4.455C17.1817 4.685 16.9188 4.8 16.6052 4.8H14.5018C14.1144 6.24 13.5332 7.72 12.7583 9.24C11.9834 10.76 11.2177 11.92 10.4613 12.72L13.1181 15.66L12.2878 18.12L8.91144 14.37ZM16.2731 18.24H20.2583L18.2657 12.12L16.2731 18.24Z" fill="#FBC07F"/>
</svg>
