<svg width="24" height="24" viewBox="0 0 24 24" fill="none" xmlns="http://www.w3.org/2000/svg">
<path d="M12 24C10.34 24 8.78 23.685 7.32 23.055C5.86 22.425 4.59 21.57 3.51 20.49C2.43 19.41 1.575 18.14 0.945 16.68C0.315 15.22 0 13.66 0 12C0 10.34 0.315 8.78 0.945 7.32C1.575 5.86 2.43 4.59 3.51 3.51C4.59 2.43 5.86 1.575 7.32 0.945C8.78 0.315 10.34 0 12 0C13.66 0 15.22 0.315 16.68 0.945C18.14 1.575 19.41 2.43 20.49 3.51C21.57 4.59 22.425 5.86 23.055 7.32C23.685 8.78 24 10.34 24 12C24 12.54 23.97 13.07 23.91 13.59C23.85 14.11 23.75 14.62 23.61 15.12C23.33 14.8 23.005 14.53 22.635 14.31C22.265 14.09 21.86 13.94 21.42 13.86C21.48 13.56 21.525 13.255 21.555 12.945C21.585 12.635 21.6 12.32 21.6 12C21.6 9.32 20.67 7.05 18.81 5.19C16.95 3.33 14.68 2.4 12 2.4C9.32 2.4 7.05 3.33 5.19 5.19C3.33 7.05 2.4 9.32 2.4 12C2.4 14.68 3.33 16.95 5.19 18.81C7.05 20.67 9.32 21.6 12 21.6C13.02 21.6 13.995 21.45 14.925 21.15C15.855 20.85 16.71 20.43 17.49 19.89C17.73 20.23 18.025 20.53 18.375 20.79C18.725 21.05 19.1 21.25 19.5 21.39C18.48 22.21 17.335 22.85 16.065 23.31C14.795 23.77 13.44 24 12 24ZM20.7 19.2C20.28 19.2 19.925 19.055 19.635 18.765C19.345 18.475 19.2 18.12 19.2 17.7C19.2 17.28 19.345 16.925 19.635 16.635C19.925 16.345 20.28 16.2 20.7 16.2C21.12 16.2 21.475 16.345 21.765 16.635C22.055 16.925 22.2 17.28 22.2 17.7C22.2 18.12 22.055 18.475 21.765 18.765C21.475 19.055 21.12 19.2 20.7 19.2ZM13.2 11.52L16.8 15.12C17.02 15.34 17.13 15.62 17.13 15.96C17.13 16.3 17.02 16.58 16.8 16.8C16.58 17.02 16.3 17.13 15.96 17.13C15.62 17.13 15.34 17.02 15.12 16.8L11.16 12.84C11.04 12.72 10.95 12.585 10.89 12.435C10.83 12.285 10.8 12.13 10.8 11.97V7.2C10.8 6.86 10.915 6.575 11.145 6.345C11.375 6.115 11.66 6 12 6C12.34 6 12.625 6.115 12.855 6.345C13.085 6.575 13.2 6.86 13.2 7.2V11.52Z" fill="#FBC07F"/>
</svg>
