<svg width="278" height="32" viewBox="0 0 278 32" fill="none" xmlns="http://www.w3.org/2000/svg">
<path d="M12.3438 31L3.20312 6.3125L0.664062 6V2.5625H11.9727V6L9.41406 6.39062L15 23.168L15.4297 24.7305H15.5469L15.957 23.207L21.543 6.39062L18.5547 6V2.5625H29.3359V6L26.7578 6.3125L18.1836 31H12.3438ZM31.0547 31V27.582L33.8086 26.9961V13.8906L30.7617 13.3047V9.86719H39.5117V26.9961L42.2461 27.582V31H31.0547ZM33.6133 5.39453V0.53125H39.5117V5.39453H33.6133ZM52.4609 31.4102C50.4948 31.4102 48.9779 30.8698 47.9102 29.7891C46.8555 28.7083 46.3281 26.9961 46.3281 24.6523V13.8711H43.418V9.86719H46.3281V4.69141H52.0117V9.86719H55.8984V13.8711H52.0117V24.6328C52.0117 25.4531 52.181 26.0391 52.5195 26.3906C52.8711 26.7422 53.3464 26.918 53.9453 26.918C54.2708 26.918 54.6094 26.8984 54.9609 26.8594C55.3255 26.8073 55.638 26.7552 55.8984 26.7031L56.3867 30.8242C55.8008 30.9935 55.1628 31.1302 54.4727 31.2344C53.7956 31.3516 53.125 31.4102 52.4609 31.4102ZM68.1445 31.4102C66.0612 31.4102 64.2708 30.9544 62.7734 30.043C61.276 29.1315 60.1302 27.8685 59.3359 26.2539C58.5417 24.6263 58.1445 22.7578 58.1445 20.6484V20.2383C58.1445 18.1419 58.5417 16.2865 59.3359 14.6719C60.1302 13.0443 61.2695 11.7747 62.7539 10.8633C64.2513 9.9388 66.0352 9.47656 68.1055 9.47656C70.2018 9.47656 71.9922 9.9388 73.4766 10.8633C74.9609 11.7747 76.1003 13.0378 76.8945 14.6523C77.6888 16.2669 78.0859 18.1289 78.0859 20.2383V20.6484C78.0859 22.7578 77.6888 24.6263 76.8945 26.2539C76.1003 27.8685 74.9609 29.1315 73.4766 30.043C71.9922 30.9544 70.2148 31.4102 68.1445 31.4102ZM68.1445 27.0352C69.1341 27.0352 69.9414 26.7682 70.5664 26.2344C71.1914 25.7005 71.6536 24.9583 71.9531 24.0078C72.2526 23.0443 72.4023 21.9245 72.4023 20.6484V20.2383C72.4023 18.9883 72.2526 17.888 71.9531 16.9375C71.6536 15.974 71.1849 15.2253 70.5469 14.6914C69.9219 14.1445 69.1081 13.8711 68.1055 13.8711C67.1289 13.8711 66.3216 14.1445 65.6836 14.6914C65.0456 15.2253 64.5768 15.974 64.2773 16.9375C63.9909 17.888 63.8477 18.9883 63.8477 20.2383V20.6484C63.8477 21.9245 63.9909 23.0443 64.2773 24.0078C64.5768 24.9714 65.0456 25.7201 65.6836 26.2539C66.3216 26.7747 67.1419 27.0352 68.1445 27.0352ZM81.0742 31V27.582L83.8086 26.9961V13.8906L80.7812 13.3047V9.86719H89.1211L89.3359 12.4844L89.375 12.9531C89.8958 11.8073 90.5404 10.9414 91.3086 10.3555C92.0768 9.76953 92.9948 9.47656 94.0625 9.47656C94.401 9.47656 94.7721 9.50911 95.1758 9.57422C95.5794 9.6263 95.9375 9.69792 96.25 9.78906L95.6445 15.043L92.8125 14.8867C92.0052 14.8477 91.3477 14.9844 90.8398 15.2969C90.3451 15.6094 89.9023 16.0586 89.5117 16.6445V26.9961L92.2461 27.582V31H81.0742ZM114.16 31V27.582L117.207 26.9961V6.95703H112.031L111.719 10.3555H107.402V2.5625H132.773V10.3555H128.438L128.125 6.95703H122.91V26.9961L125.977 27.582V31H114.16ZM143.418 31.4102C141.335 31.4102 139.544 30.9544 138.047 30.043C136.549 29.1315 135.404 27.8685 134.609 26.2539C133.815 24.6263 133.418 22.7578 133.418 20.6484V20.2383C133.418 18.1419 133.815 16.2865 134.609 14.6719C135.404 13.0443 136.543 11.7747 138.027 10.8633C139.525 9.9388 141.309 9.47656 143.379 9.47656C145.475 9.47656 147.266 9.9388 148.75 10.8633C150.234 11.7747 151.374 13.0378 152.168 14.6523C152.962 16.2669 153.359 18.1289 153.359 20.2383V20.6484C153.359 22.7578 152.962 24.6263 152.168 26.2539C151.374 27.8685 150.234 29.1315 148.75 30.043C147.266 30.9544 145.488 31.4102 143.418 31.4102ZM143.418 27.0352C144.408 27.0352 145.215 26.7682 145.84 26.2344C146.465 25.7005 146.927 24.9583 147.227 24.0078C147.526 23.0443 147.676 21.9245 147.676 20.6484V20.2383C147.676 18.9883 147.526 17.888 147.227 16.9375C146.927 15.974 146.458 15.2253 145.82 14.6914C145.195 14.1445 144.382 13.8711 143.379 13.8711C142.402 13.8711 141.595 14.1445 140.957 14.6914C140.319 15.2253 139.85 15.974 139.551 16.9375C139.264 17.888 139.121 18.9883 139.121 20.2383V20.6484C139.121 21.9245 139.264 23.0443 139.551 24.0078C139.85 24.9714 140.319 25.7201 140.957 26.2539C141.595 26.7747 142.415 27.0352 143.418 27.0352ZM155.703 31V27.582L158.438 26.9961V13.8906L155.41 13.3047V9.86719H163.75L164.004 12.8945C164.707 11.8138 165.573 10.974 166.602 10.375C167.643 9.77604 168.828 9.47656 170.156 9.47656C172.253 9.47656 173.893 10.1471 175.078 11.4883C176.263 12.8294 176.855 14.9323 176.855 17.7969V26.9961L179.59 27.582V31H168.691V27.582L171.133 26.9961V17.8164C171.133 16.3971 170.853 15.3945 170.293 14.8086C169.733 14.2096 168.9 13.9102 167.793 13.9102C166.973 13.9102 166.257 14.0859 165.645 14.4375C165.046 14.776 164.544 15.2643 164.141 15.9023V26.9961L166.445 27.582V31H155.703ZM181.289 31V27.582L184.043 26.9961V13.8906L180.996 13.3047V9.86719H189.746V26.9961L192.48 27.582V31H181.289ZM183.848 5.39453V0.53125H189.746V5.39453H183.848ZM201.465 31.4102C199.368 31.4102 197.702 30.8503 196.465 29.7305C195.228 28.5977 194.609 27.0612 194.609 25.1211C194.609 23.793 194.967 22.6276 195.684 21.625C196.413 20.6224 197.48 19.8346 198.887 19.2617C200.306 18.6888 202.051 18.4023 204.121 18.4023H206.914V16.8398C206.914 15.8242 206.615 15.0039 206.016 14.3789C205.43 13.7409 204.544 13.4219 203.359 13.4219C202.747 13.4219 202.201 13.5 201.719 13.6562C201.237 13.7995 200.794 14.0078 200.391 14.2812L199.941 17.0742H195.84L195.762 11.5859C196.868 10.9609 198.066 10.4531 199.355 10.0625C200.645 9.67188 202.083 9.47656 203.672 9.47656C206.432 9.47656 208.613 10.1211 210.215 11.4102C211.816 12.6862 212.617 14.5156 212.617 16.8984V25.6094C212.617 25.8958 212.617 26.1823 212.617 26.4688C212.63 26.7422 212.656 27.0091 212.695 27.2695L214.902 27.582V31H207.832C207.689 30.6354 207.546 30.2448 207.402 29.8281C207.259 29.4115 207.155 28.9948 207.09 28.5781C206.413 29.4375 205.612 30.1276 204.688 30.6484C203.776 31.1562 202.702 31.4102 201.465 31.4102ZM202.988 27.1914C203.783 27.1914 204.538 27.0156 205.254 26.6641C205.97 26.2995 206.523 25.8242 206.914 25.2383V21.8984H204.102C202.852 21.8984 201.901 22.1849 201.25 22.7578C200.612 23.3307 200.293 24.0208 200.293 24.8281C200.293 25.5833 200.527 26.1693 200.996 26.5859C201.478 26.9896 202.142 27.1914 202.988 27.1914ZM225.996 31.4102C224.421 31.4102 222.949 31.2604 221.582 30.9609C220.228 30.6615 218.926 30.2318 217.676 29.6719L217.617 23.6953H221.582L222.344 26.7422C222.786 26.9635 223.268 27.1393 223.789 27.2695C224.323 27.3997 224.928 27.4648 225.605 27.4648C226.882 27.4648 227.78 27.2565 228.301 26.8398C228.822 26.4232 229.082 25.9023 229.082 25.2773C229.082 24.6914 228.802 24.1771 228.242 23.7344C227.695 23.2786 226.595 22.8815 224.941 22.543C222.441 22.0221 220.599 21.2148 219.414 20.1211C218.229 19.0273 217.637 17.6276 217.637 15.9219C217.637 14.75 217.93 13.6823 218.516 12.7188C219.115 11.7552 220.02 10.9805 221.23 10.3945C222.454 9.80859 224.017 9.51562 225.918 9.51562C227.507 9.51562 228.958 9.67188 230.273 9.98438C231.602 10.2839 232.715 10.681 233.613 11.1758L233.672 16.957H229.727L229.121 14.1836C228.77 13.9232 228.353 13.7279 227.871 13.5977C227.402 13.4674 226.868 13.4023 226.27 13.4023C225.267 13.4023 224.499 13.6042 223.965 14.0078C223.431 14.4115 223.164 14.9323 223.164 15.5703C223.164 15.9349 223.255 16.2734 223.438 16.5859C223.633 16.8984 224.01 17.1914 224.57 17.4648C225.13 17.7383 225.944 17.9987 227.012 18.2461C229.629 18.8451 231.536 19.6458 232.734 20.6484C233.932 21.638 234.531 23.0312 234.531 24.8281C234.531 26.7943 233.815 28.3828 232.383 29.5938C230.964 30.8047 228.835 31.4102 225.996 31.4102ZM246.191 31.4102C244.616 31.4102 243.145 31.2604 241.777 30.9609C240.423 30.6615 239.121 30.2318 237.871 29.6719L237.812 23.6953H241.777L242.539 26.7422C242.982 26.9635 243.464 27.1393 243.984 27.2695C244.518 27.3997 245.124 27.4648 245.801 27.4648C247.077 27.4648 247.975 27.2565 248.496 26.8398C249.017 26.4232 249.277 25.9023 249.277 25.2773C249.277 24.6914 248.997 24.1771 248.438 23.7344C247.891 23.2786 246.79 22.8815 245.137 22.543C242.637 22.0221 240.794 21.2148 239.609 20.1211C238.424 19.0273 237.832 17.6276 237.832 15.9219C237.832 14.75 238.125 13.6823 238.711 12.7188C239.31 11.7552 240.215 10.9805 241.426 10.3945C242.65 9.80859 244.212 9.51562 246.113 9.51562C247.702 9.51562 249.154 9.67188 250.469 9.98438C251.797 10.2839 252.91 10.681 253.809 11.1758L253.867 16.957H249.922L249.316 14.1836C248.965 13.9232 248.548 13.7279 248.066 13.5977C247.598 13.4674 247.064 13.4023 246.465 13.4023C245.462 13.4023 244.694 13.6042 244.16 14.0078C243.626 14.4115 243.359 14.9323 243.359 15.5703C243.359 15.9349 243.451 16.2734 243.633 16.5859C243.828 16.8984 244.206 17.1914 244.766 17.4648C245.326 17.7383 246.139 17.9987 247.207 18.2461C249.824 18.8451 251.732 19.6458 252.93 20.6484C254.128 21.638 254.727 23.0312 254.727 24.8281C254.727 26.7943 254.01 28.3828 252.578 29.5938C251.159 30.8047 249.03 31.4102 246.191 31.4102ZM267.402 31.4102C265.319 31.4102 263.529 30.9544 262.031 30.043C260.534 29.1315 259.388 27.8685 258.594 26.2539C257.799 24.6263 257.402 22.7578 257.402 20.6484V20.2383C257.402 18.1419 257.799 16.2865 258.594 14.6719C259.388 13.0443 260.527 11.7747 262.012 10.8633C263.509 9.9388 265.293 9.47656 267.363 9.47656C269.46 9.47656 271.25 9.9388 272.734 10.8633C274.219 11.7747 275.358 13.0378 276.152 14.6523C276.947 16.2669 277.344 18.1289 277.344 20.2383V20.6484C277.344 22.7578 276.947 24.6263 276.152 26.2539C275.358 27.8685 274.219 29.1315 272.734 30.043C271.25 30.9544 269.473 31.4102 267.402 31.4102ZM267.402 27.0352C268.392 27.0352 269.199 26.7682 269.824 26.2344C270.449 25.7005 270.911 24.9583 271.211 24.0078C271.51 23.0443 271.66 21.9245 271.66 20.6484V20.2383C271.66 18.9883 271.51 17.888 271.211 16.9375C270.911 15.974 270.443 15.2253 269.805 14.6914C269.18 14.1445 268.366 13.8711 267.363 13.8711C266.387 13.8711 265.579 14.1445 264.941 14.6914C264.303 15.2253 263.835 15.974 263.535 16.9375C263.249 17.888 263.105 18.9883 263.105 20.2383V20.6484C263.105 21.9245 263.249 23.0443 263.535 24.0078C263.835 24.9714 264.303 25.7201 264.941 26.2539C265.579 26.7747 266.4 27.0352 267.402 27.0352Z" fill="#141414"/>
</svg>
